<?xml version="1.0" encoding="UTF-8" standalone="no"?>
<svg
   xmlns:osb="http://www.openswatchbook.org/uri/2009/osb"
   xmlns:dc="http://purl.org/dc/elements/1.1/"
   xmlns:cc="http://creativecommons.org/ns#"
   xmlns:rdf="http://www.w3.org/1999/02/22-rdf-syntax-ns#"
   xmlns:svg="http://www.w3.org/2000/svg"
   xmlns="http://www.w3.org/2000/svg"
   version="1.1"
   id="svg2"
   viewBox="0 0 128 128"
   height="128"
   width="128">
  <defs
     id="defs4">
    <linearGradient
       osb:paint="solid"
       id="linearGradient5586">
      <stop
         id="stop5588"
         offset="0"
         style="stop-color:#000000;stop-opacity:1;" />
    </linearGradient>
  </defs>
  <metadata
     id="metadata7">
    <rdf:RDF>
      <cc:Work
         rdf:about="">
        <dc:format>image/svg+xml</dc:format>
        <dc:type
           rdf:resource="http://purl.org/dc/dcmitype/StillImage" />
        <dc:title></dc:title>
      </cc:Work>
    </rdf:RDF>
  </metadata>
  <g
     transform="translate(0,-924.36219)"
     id="layer1">
    <path
       d="M 620,350.93365 A 250,250 0 0 1 370.09926,600.93364 250,250 0 0 1 120.00008,351.13218 250,250 0 0 1 369.70221,100.93383 250,250 0 0 1 619.99968,350.5366"
       id="path3338"
       style="opacity:1;fill:none;fill-opacity:1;stroke:#f3f000;stroke-width:10;stroke-linejoin:round;stroke-miterlimit:4;stroke-dasharray:none;stroke-dashoffset:0;stroke-opacity:0" />
    <g
       transform="matrix(0.41711995,0,0,0.41711995,-61.483133,845.49055)"
       id="g4141">
      <path
         style="opacity:1;fill:none;fill-opacity:1;stroke:#434343;stroke-width:10;stroke-linejoin:round;stroke-miterlimit:4;stroke-dasharray:none;stroke-dashoffset:0;stroke-opacity:1"
         id="path4142"
         d="M 448.57144,343.07648 A 147.85715,147.85715 0 0 1 300.773,490.93361 147.85715,147.85715 0 0 1 152.85719,343.19389 147.85715,147.85715 0 0 1 300.53817,195.21943 147.85715,147.85715 0 0 1 448.57126,342.84165" />
      <rect
         style="opacity:1;fill:none;fill-opacity:1;stroke:#e74c3f;stroke-width:10;stroke-linejoin:round;stroke-miterlimit:4;stroke-dasharray:none;stroke-dashoffset:0;stroke-opacity:0.94117647"
         id="rect5641"
         width="30"
         height="128.57143"
         x="227.71428"
         y="276.40823"
         ry="15" />
      <rect
         style="opacity:1;fill:none;fill-opacity:1;stroke:#5dadef;stroke-width:10;stroke-linejoin:round;stroke-miterlimit:4;stroke-dasharray:none;stroke-dashoffset:0;stroke-opacity:0.94117647"
         id="rect5641-9"
         width="30"
         height="128.57143"
         x="345.57141"
         y="276.07648"
         ry="15" />
      <rect
         style="opacity:1;fill:none;fill-opacity:1;stroke:#48c9bf;stroke-width:10;stroke-linejoin:round;stroke-miterlimit:4;stroke-dasharray:none;stroke-dashoffset:0;stroke-opacity:0.94117647"
         id="rect5660"
         width="30"
         height="75"
         x="287"
         y="330.36221"
         ry="15" />
    </g>
  </g>
</svg>
